<mxfile host="app.diagrams.net" modified="2024-02-11T00:09:41.142Z" agent="Mozilla/5.0 (Windows NT 10.0; Win64; x64) AppleWebKit/537.36 (KHTML, like Gecko) Chrome/121.0.0.0 Safari/537.36" etag="_CNyit8i33-mLYd60gC3" version="23.1.2" type="device">
  <diagram name="Page-1" id="My04iPDE87iwI_xUb_gP">
    <mxGraphModel dx="1434" dy="746" grid="1" gridSize="10" guides="1" tooltips="1" connect="1" arrows="1" fold="1" page="1" pageScale="1" pageWidth="827" pageHeight="1169" math="0" shadow="0">
      <root>
        <mxCell id="0" />
        <mxCell id="1" parent="0" />
        <mxCell id="GmGY9-1nHvUCIWFC042A-16" value="" style="rounded=0;whiteSpace=wrap;html=1;" parent="1" vertex="1">
          <mxGeometry y="40" width="370" height="560" as="geometry" />
        </mxCell>
        <mxCell id="GmGY9-1nHvUCIWFC042A-17" value="Restaurant Name" style="rounded=0;whiteSpace=wrap;html=1;" parent="1" vertex="1">
          <mxGeometry x="50" y="110" width="270" height="260" as="geometry" />
        </mxCell>
        <mxCell id="GmGY9-1nHvUCIWFC042A-18" value="Restaurant Number" style="text;html=1;strokeColor=none;fillColor=none;align=center;verticalAlign=middle;whiteSpace=wrap;rounded=0;" parent="1" vertex="1">
          <mxGeometry x="97.5" y="390" width="175" height="30" as="geometry" />
        </mxCell>
        <mxCell id="GmGY9-1nHvUCIWFC042A-19" value="Restaurant&amp;nbsp;Address" style="text;html=1;strokeColor=none;fillColor=none;align=center;verticalAlign=middle;whiteSpace=wrap;rounded=0;" parent="1" vertex="1">
          <mxGeometry x="97.5" y="420" width="175" height="30" as="geometry" />
        </mxCell>
        <mxCell id="GmGY9-1nHvUCIWFC042A-20" value="Home Screen" style="text;html=1;strokeColor=none;fillColor=none;align=center;verticalAlign=middle;whiteSpace=wrap;rounded=0;" parent="1" vertex="1">
          <mxGeometry x="125" y="10" width="120" height="30" as="geometry" />
        </mxCell>
        <mxCell id="GmGY9-1nHvUCIWFC042A-21" value="Restaurant&amp;nbsp;Website" style="text;html=1;strokeColor=none;fillColor=none;align=center;verticalAlign=middle;whiteSpace=wrap;rounded=0;" parent="1" vertex="1">
          <mxGeometry x="97.5" y="450" width="175" height="30" as="geometry" />
        </mxCell>
        <mxCell id="GmGY9-1nHvUCIWFC042A-22" value="" style="rounded=0;whiteSpace=wrap;html=1;" parent="1" vertex="1">
          <mxGeometry x="390" y="40" width="370" height="560" as="geometry" />
        </mxCell>
        <mxCell id="GmGY9-1nHvUCIWFC042A-23" value="Item Image" style="rounded=0;whiteSpace=wrap;html=1;" parent="1" vertex="1">
          <mxGeometry x="400" y="150" width="350" height="180" as="geometry" />
        </mxCell>
        <mxCell id="GmGY9-1nHvUCIWFC042A-24" value="Menu Screen" style="text;html=1;strokeColor=none;fillColor=none;align=center;verticalAlign=middle;whiteSpace=wrap;rounded=0;" parent="1" vertex="1">
          <mxGeometry x="515" y="10" width="120" height="30" as="geometry" />
        </mxCell>
        <mxCell id="GmGY9-1nHvUCIWFC042A-25" value="Item Name" style="rounded=1;whiteSpace=wrap;html=1;" parent="1" vertex="1">
          <mxGeometry x="400" y="120" width="350" height="30" as="geometry" />
        </mxCell>
        <mxCell id="GmGY9-1nHvUCIWFC042A-26" value="Item Price" style="rounded=1;whiteSpace=wrap;html=1;" parent="1" vertex="1">
          <mxGeometry x="400" y="330" width="350" height="30" as="geometry" />
        </mxCell>
        <mxCell id="GmGY9-1nHvUCIWFC042A-29" value="&lt;font style=&quot;font-size: 19px;&quot;&gt;Menu&lt;/font&gt;" style="rounded=1;whiteSpace=wrap;html=1;" parent="1" vertex="1">
          <mxGeometry x="472.5" y="60" width="205" height="30" as="geometry" />
        </mxCell>
        <mxCell id="GmGY9-1nHvUCIWFC042A-30" value="&lt;font style=&quot;font-size: 19px;&quot;&gt;Restaurant Name&lt;/font&gt;" style="rounded=1;whiteSpace=wrap;html=1;" parent="1" vertex="1">
          <mxGeometry x="82.5" y="60" width="205" height="30" as="geometry" />
        </mxCell>
        <mxCell id="GmGY9-1nHvUCIWFC042A-31" value="Item Image" style="rounded=0;whiteSpace=wrap;html=1;" parent="1" vertex="1">
          <mxGeometry x="400" y="420" width="350" height="80" as="geometry" />
        </mxCell>
        <mxCell id="GmGY9-1nHvUCIWFC042A-32" value="Item Name" style="rounded=1;whiteSpace=wrap;html=1;" parent="1" vertex="1">
          <mxGeometry x="400" y="390" width="350" height="30" as="geometry" />
        </mxCell>
        <mxCell id="GmGY9-1nHvUCIWFC042A-33" value="View Menu Button" style="rounded=0;whiteSpace=wrap;html=1;" parent="1" vertex="1">
          <mxGeometry x="55" y="540" width="260" height="40" as="geometry" />
        </mxCell>
        <mxCell id="GmGY9-1nHvUCIWFC042A-34" value="Home Page Button" style="rounded=0;whiteSpace=wrap;html=1;" parent="1" vertex="1">
          <mxGeometry x="445" y="540" width="260" height="40" as="geometry" />
        </mxCell>
      </root>
    </mxGraphModel>
  </diagram>
</mxfile>
